<svg xmlns="http://www.w3.org/2000/svg" width="128" height="128"><filter id="a" width="1" height="1" x="0" y="0"><feColorMatrix color-interpolation-filters="sRGB" values="0 0 0 0 1 0 0 0 0 1 0 0 0 0 1 0 0 0 1 0"/></filter><linearGradient id="d" x1="12" x2="116" y1="64" y2="64" gradientUnits="userSpaceOnUse"><stop offset="0" stop-color="#3d3846"/><stop offset=".05" stop-color="#77767b"/><stop offset=".1" stop-color="#5e5c64"/><stop offset=".9" stop-color="#5e5c64"/><stop offset=".95" stop-color="#77767b"/><stop offset="1" stop-color="#3d3846"/></linearGradient><linearGradient id="e" x1="12" x2="115.948" y1="190" y2="190" gradientTransform="matrix(1 0 0 1.04167 0 -179.667)" gradientUnits="userSpaceOnUse"><stop offset="0" stop-color="#5e5c64"/><stop offset=".038" stop-color="#8a8791"/><stop offset=".079" stop-color="#78747f"/><stop offset=".904" stop-color="#72707a"/><stop offset=".945" stop-color="#77747e"/><stop offset="1" stop-color="#37363b"/></linearGradient><linearGradient id="f" x1="74.56" x2="74.56" y1="5.44" y2="86.168" gradientUnits="userSpaceOnUse"><stop offset="0" stop-color="#3d3846"/><stop offset="1" stop-color="#241f31"/></linearGradient><clipPath id="c"><path d="M0 0h128v128H0z"/></clipPath><clipPath id="b"><path d="M0 0h128v128H0z"/></clipPath><mask id="g"><g filter="url(#a)"><g clip-path="url(#b)" filter="url(#a)"><g clip-path="url(#c)"><path fill="url(#d)" d="M20 22h88a8 8 0 0 1 8 8v78a8 8 0 0 1-8 8H20a8 8 0 0 1-8-8V30a8 8 0 0 1 8-8zm0 0"/><path fill="url(#e)" d="M20 12h88c4.418 0 8 3.73 8 8.332v83.336c0 4.602-3.582 8.332-8 8.332H20c-4.418 0-8-3.73-8-8.332V20.332C12 15.73 15.582 12 20 12zm0 0"/><path fill="url(#f)" d="M20 14h88a8 8 0 0 1 8 8v80a8 8 0 0 1-8 8H20a8 8 0 0 1-8-8V22a8 8 0 0 1 8-8zm0 0"/><path fill="#62c9ea" d="M48 76.777 32 66v6.824l10 6.418v.2l-10 7.12v6.97l16-11.626zM50 92v4h22v-4zm0 0"/></g></g></g></mask><mask id="i"><g filter="url(#a)"><path fill-opacity=".8" d="M-28.16-28.16h184.32v184.32H-28.16z"/></g></mask><linearGradient id="k" x1="300" x2="428" y1="235" y2="235" gradientTransform="matrix(0 .37 -.98462 0 295.385 -30.36)" gradientUnits="userSpaceOnUse"><stop offset="0" stop-color="#f9f06b"/><stop offset="1" stop-color="#f5c211"/></linearGradient><clipPath id="j"><path d="M0 0h128v128H0z"/></clipPath><clipPath id="h"><path d="M0 0h128v128H0z"/></clipPath><path fill="url(#d)" d="M20 22h88a8 8 0 0 1 8 8v78a8 8 0 0 1-8 8H20a8 8 0 0 1-8-8V30a8 8 0 0 1 8-8zm0 0"/><path fill="url(#e)" d="M20 12h88c4.418 0 8 3.73 8 8.332v83.336c0 4.602-3.582 8.332-8 8.332H20c-4.418 0-8-3.73-8-8.332V20.332C12 15.73 15.582 12 20 12zm0 0"/><path fill="url(#f)" d="M20 14h88a8 8 0 0 1 8 8v80a8 8 0 0 1-8 8H20a8 8 0 0 1-8-8V22a8 8 0 0 1 8-8zm0 0"/><g clip-path="url(#h)" mask="url(#g)"><g clip-path="url(#j)" mask="url(#i)"><path fill="url(#k)" d="M128 80.64V128H0V80.64zm0 0"/><path d="M13.309 80.64 60.664 128H81.88l-47.36-47.36zm42.421 0L103.094 128h21.215L76.945 80.64zm42.43 0L128 110.48V89.27l-8.629-8.63zM0 88.548v21.215L18.238 128h21.215zm0 0"/></g></g><path fill="#62c9ea" d="M50 94v4h22v-4zM48 78.777 32 68v6.824l10 6.418v.2l-10 7.12v6.97l16-11.626zm0 0" style="fill:#07060a;fill-opacity:1"/><path fill="#62c9ea" d="M48 76.777 32 66v6.824l10 6.418v.2l-10 7.12v6.97l16-11.626zM50 92v4h22v-4zm0 0" style="fill:#fff"/></svg>