<?xml version="1.0" encoding="UTF-8"?>
<svg height="16px" viewBox="0 0 16 16" width="16px" xmlns="http://www.w3.org/2000/svg">
    <g fill="#241f31">
        <path d="m 3.421875 9.03125 c -0.109375 0 -0.214844 0.042969 -0.289063 0.121094 c -0.160156 0.160156 -0.160156 0.417968 0 0.578125 l 1.34375 1.34375 l -1.34375 1.34375 c -0.160156 0.160156 -0.160156 0.417969 0 0.578125 c 0.15625 0.160156 0.417969 0.160156 0.578126 0 l 1.921874 -1.921875 l -1.921874 -1.921875 c -0.078126 -0.074219 -0.183594 -0.121094 -0.289063 -0.121094 z m 0 0"/>
        <path d="m 3.082031 5.988281 c 3.984375 0.597657 8.539063 0.65625 9.019531 -4.441406 c -5.402343 -4.441406 -6.183593 2 -9.019531 4.441406 z m 0 0"/>
        <path d="m 12.320312 8.226562 c 2.460938 -2.011718 3.652344 -6.074218 0.8125 -6.074218 c -4.097656 0 -0.429687 3.324218 -0.8125 6.074218 z m 0 0"/>
        <path d="m 2.1875 1.980469 c -1.207031 0 -2.1875 1.019531 -2.1875 2.21875 v 9.546875 c 0 1.199218 0.980469 2.21875 2.1875 2.21875 h 11.625 c 1.207031 0 2.1875 -1.019532 2.1875 -2.21875 v -9.546875 c 0 -1.199219 -0.980469 -2.21875 -2.1875 -2.21875 z m 0 2 h 11.625 c 0.121094 0 0.1875 0.082031 0.1875 0.21875 v 9.546875 c 0 0.136718 -0.066406 0.21875 -0.1875 0.21875 h -11.625 c -0.121094 0 -0.1875 -0.082032 -0.1875 -0.21875 v -9.546875 c 0 -0.136719 0.066406 -0.21875 0.1875 -0.21875 z m 0 0"/>
    </g>
</svg>
